<svg width="32" height="32" viewBox="0 0 32 32" fill="none" xmlns="http://www.w3.org/2000/svg">
<g id="center_focus_strong">
<mask id="mask0_402_82" style="mask-type:alpha" maskUnits="userSpaceOnUse" x="0" y="0" width="32" height="32">
<rect id="Bounding box" width="32" height="32" fill="#fff"/>
</mask>
<g mask="url(#mask0_402_82)">
<path id="center_focus_strong_2" d="M16 22.6667C14.1556 22.6667 12.5833 22.0167 11.2833 20.7167C9.98333 19.4167 9.33333 17.8444 9.33333 16C9.33333 14.1556 9.98333 12.5833 11.2833 11.2833C12.5833 9.98333 14.1556 9.33333 16 9.33333C17.8444 9.33333 19.4167 9.98333 20.7167 11.2833C22.0167 12.5833 22.6667 14.1556 22.6667 16C22.6667 17.8444 22.0167 19.4167 20.7167 20.7167C19.4167 22.0167 17.8444 22.6667 16 22.6667ZM16 20C17.1111 20 18.0556 19.6111 18.8333 18.8333C19.6111 18.0556 20 17.1111 20 16C20 14.8889 19.6111 13.9444 18.8333 13.1667C18.0556 12.3889 17.1111 12 16 12C14.8889 12 13.9444 12.3889 13.1667 13.1667C12.3889 13.9444 12 14.8889 12 16C12 17.1111 12.3889 18.0556 13.1667 18.8333C13.9444 19.6111 14.8889 20 16 20ZM5.33333 12C4.95556 12 4.63889 11.8722 4.38333 11.6167C4.12778 11.3611 4 11.0444 4 10.6667V6.66667C4 5.93333 4.26111 5.30556 4.78333 4.78333C5.30556 4.26111 5.93333 4 6.66667 4H10.6667C11.0444 4 11.3611 4.12778 11.6167 4.38333C11.8722 4.63889 12 4.95556 12 5.33333C12 5.71111 11.8722 6.02778 11.6167 6.28333C11.3611 6.53889 11.0444 6.66667 10.6667 6.66667H6.66667V10.6667C6.66667 11.0444 6.53889 11.3611 6.28333 11.6167C6.02778 11.8722 5.71111 12 5.33333 12ZM6.66667 28C5.93333 28 5.30556 27.7389 4.78333 27.2167C4.26111 26.6944 4 26.0667 4 25.3333V21.3333C4 20.9556 4.12778 20.6389 4.38333 20.3833C4.63889 20.1278 4.95556 20 5.33333 20C5.71111 20 6.02778 20.1278 6.28333 20.3833C6.53889 20.6389 6.66667 20.9556 6.66667 21.3333V25.3333H10.6667C11.0444 25.3333 11.3611 25.4611 11.6167 25.7167C11.8722 25.9722 12 26.2889 12 26.6667C12 27.0444 11.8722 27.3611 11.6167 27.6167C11.3611 27.8722 11.0444 28 10.6667 28H6.66667ZM21.3333 28C20.9556 28 20.6389 27.8722 20.3833 27.6167C20.1278 27.3611 20 27.0444 20 26.6667C20 26.2889 20.1278 25.9722 20.3833 25.7167C20.6389 25.4611 20.9556 25.3333 21.3333 25.3333H25.3333V21.3333C25.3333 20.9556 25.4611 20.6389 25.7167 20.3833C25.9722 20.1278 26.2889 20 26.6667 20C27.0444 20 27.3611 20.1278 27.6167 20.3833C27.8722 20.6389 28 20.9556 28 21.3333V25.3333C28 26.0667 27.7389 26.6944 27.2167 27.2167C26.6944 27.7389 26.0667 28 25.3333 28H21.3333ZM26.6667 12C26.2889 12 25.9722 11.8722 25.7167 11.6167C25.4611 11.3611 25.3333 11.0444 25.3333 10.6667V6.66667H21.3333C20.9556 6.66667 20.6389 6.53889 20.3833 6.28333C20.1278 6.02778 20 5.71111 20 5.33333C20 4.95556 20.1278 4.63889 20.3833 4.38333C20.6389 4.12778 20.9556 4 21.3333 4H25.3333C26.0667 4 26.6944 4.26111 27.2167 4.78333C27.7389 5.30556 28 5.93333 28 6.66667V10.6667C28 11.0444 27.8722 11.3611 27.6167 11.6167C27.3611 11.8722 27.0444 12 26.6667 12Z" fill="#35e0be"/>
</g>
</g>
</svg>
