<svg width="32" height="32" viewBox="0 0 32 32" fill="none" xmlns="http://www.w3.org/2000/svg">
<g id="zoom_out_map">
<mask id="mask0_402_87" style="mask-type:alpha" maskUnits="userSpaceOnUse" x="0" y="0" width="32" height="32">
<rect id="Bounding box" width="32" height="32" fill="#fff"/>
</mask>
<g mask="url(#mask0_402_87)">
<path id="zoom_out_map_2" d="M5.33333 12C4.95556 12 4.63889 11.8722 4.38333 11.6167C4.12778 11.3611 4 11.0444 4 10.6667V5.33333C4 4.95556 4.12778 4.63889 4.38333 4.38333C4.63889 4.12778 4.95556 4 5.33333 4H10.6667C11.0444 4 11.3611 4.12778 11.6167 4.38333C11.8722 4.63889 12 4.95556 12 5.33333C12 5.71111 11.8722 6.02778 11.6167 6.28333C11.3611 6.53889 11.0444 6.66667 10.6667 6.66667H8.53333L11.7667 9.9C12.0111 10.1444 12.1333 10.4444 12.1333 10.8C12.1333 11.1556 12 11.4667 11.7333 11.7333C11.4889 11.9778 11.1778 12.1 10.8 12.1C10.4222 12.1 10.1111 11.9778 9.86667 11.7333L6.66667 8.53333V10.6667C6.66667 11.0444 6.53889 11.3611 6.28333 11.6167C6.02778 11.8722 5.71111 12 5.33333 12ZM20.2667 11.7333C20.0222 11.4889 19.9 11.1778 19.9 10.8C19.9 10.4222 20.0222 10.1111 20.2667 9.86667L23.4667 6.66667H21.3333C20.9556 6.66667 20.6389 6.53889 20.3833 6.28333C20.1278 6.02778 20 5.71111 20 5.33333C20 4.95556 20.1278 4.63889 20.3833 4.38333C20.6389 4.12778 20.9556 4 21.3333 4H26.6667C27.0444 4 27.3611 4.12778 27.6167 4.38333C27.8722 4.63889 28 4.95556 28 5.33333V10.6667C28 11.0444 27.8722 11.3611 27.6167 11.6167C27.3611 11.8722 27.0444 12 26.6667 12C26.2889 12 25.9722 11.8722 25.7167 11.6167C25.4611 11.3611 25.3333 11.0444 25.3333 10.6667V8.53333L22.1 11.7667C21.8556 12.0111 21.5556 12.1333 21.2 12.1333C20.8444 12.1333 20.5333 12 20.2667 11.7333ZM21.3333 28C20.9556 28 20.6389 27.8722 20.3833 27.6167C20.1278 27.3611 20 27.0444 20 26.6667C20 26.2889 20.1278 25.9722 20.3833 25.7167C20.6389 25.4611 20.9556 25.3333 21.3333 25.3333H23.4667L20.2333 22.1C19.9889 21.8556 19.8667 21.5556 19.8667 21.2C19.8667 20.8444 20 20.5333 20.2667 20.2667C20.5111 20.0222 20.8222 19.9 21.2 19.9C21.5778 19.9 21.8889 20.0222 22.1333 20.2667L25.3333 23.4667V21.3333C25.3333 20.9556 25.4611 20.6389 25.7167 20.3833C25.9722 20.1278 26.2889 20 26.6667 20C27.0444 20 27.3611 20.1278 27.6167 20.3833C27.8722 20.6389 28 20.9556 28 21.3333V26.6667C28 27.0444 27.8722 27.3611 27.6167 27.6167C27.3611 27.8722 27.0444 28 26.6667 28H21.3333ZM5.33333 28C4.95556 28 4.63889 27.8722 4.38333 27.6167C4.12778 27.3611 4 27.0444 4 26.6667V21.3333C4 20.9556 4.12778 20.6389 4.38333 20.3833C4.63889 20.1278 4.95556 20 5.33333 20C5.71111 20 6.02778 20.1278 6.28333 20.3833C6.53889 20.6389 6.66667 20.9556 6.66667 21.3333V23.4667L9.9 20.2333C10.1444 19.9889 10.4444 19.8667 10.8 19.8667C11.1556 19.8667 11.4667 20 11.7333 20.2667C11.9778 20.5111 12.1 20.8222 12.1 21.2C12.1 21.5778 11.9778 21.8889 11.7333 22.1333L8.53333 25.3333H10.6667C11.0444 25.3333 11.3611 25.4611 11.6167 25.7167C11.8722 25.9722 12 26.2889 12 26.6667C12 27.0444 11.8722 27.3611 11.6167 27.6167C11.3611 27.8722 11.0444 28 10.6667 28H5.33333Z" fill="#0057FF"/>
</g>
</g>
</svg>
